<svg xmlns="http://www.w3.org/2000/svg" viewBox="0 0 1439.08 157.34"><defs><style>.cls-1{fill:#fff;}.cls-2{fill:#5f4e9a;}.cls-3{fill:#6d388c;}.cls-4{fill:#804d99;}.cls-5{fill:#9264a7;}.cls-6{fill:#45387f;}.cls-7{fill:#c584b8;}.cls-8{fill:#a479b4;}.cls-9{fill:#7d6aad;}.cls-10{fill:#58267d;}.cls-11{fill:#882c76;}.cls-12{fill:#ae4d97;}</style></defs><title>focuspass</title><g id="Layer_2" data-name="Layer 2"><g id="Layer_16" data-name="Layer 16"><path class="cls-1" d="M0,154.29V3.48H101V32H34V63.54H93.58V92.05H34v62.24Z"/><path class="cls-1" d="M266.8,78.78q0,19.36-5.77,34.05a70.13,70.13,0,0,1-15.78,24.6,64.6,64.6,0,0,1-23.83,14.9,86.46,86.46,0,0,1-29.7,5,84.29,84.29,0,0,1-29.16-5,67,67,0,0,1-23.94-14.9,69.54,69.54,0,0,1-16.1-24.6q-5.88-14.68-5.88-34t6.1-34.06A72.35,72.35,0,0,1,139.17,20,67.36,67.36,0,0,1,163.1,5a82.16,82.16,0,0,1,28.62-5,84.29,84.29,0,0,1,29.16,5,66.28,66.28,0,0,1,23.94,15,70.93,70.93,0,0,1,16.1,24.7Q266.8,59.41,266.8,78.78Zm-115.12,0a68.32,68.32,0,0,0,2.72,20,45.63,45.63,0,0,0,7.83,15.34,34.62,34.62,0,0,0,12.52,9.9,42.85,42.85,0,0,0,33.83,0,34.41,34.41,0,0,0,12.63-9.9A46,46,0,0,0,229,98.8a68.66,68.66,0,0,0,2.72-20A69.77,69.77,0,0,0,229,58.65a45.89,45.89,0,0,0-7.83-15.45,34.41,34.41,0,0,0-12.63-9.9,39.6,39.6,0,0,0-16.86-3.49,38.42,38.42,0,0,0-17,3.59,35.9,35.9,0,0,0-12.52,10,45.68,45.68,0,0,0-7.83,15.46A68.57,68.57,0,0,0,151.68,78.78Z"/><path class="cls-1" d="M363.85,157.34q-36.78,0-56-20.46t-19.26-58.1q0-18.72,5.87-33.41a72.08,72.08,0,0,1,16.11-24.81A67.3,67.3,0,0,1,334.91,5.22,88,88,0,0,1,365.59,0,98.58,98.58,0,0,1,383,1.41a114.07,114.07,0,0,1,13.71,3.27,67.16,67.16,0,0,1,9.8,3.81c2.61,1.3,4.49,2.32,5.65,3L402.37,39a82.54,82.54,0,0,0-16.21-6.31,77.45,77.45,0,0,0-21-2.61,46.39,46.39,0,0,0-15.34,2.61A34.69,34.69,0,0,0,336.54,41a41.79,41.79,0,0,0-9.25,14.91q-3.48,9.13-3.48,22.19A78.89,78.89,0,0,0,326.1,97.6a41.09,41.09,0,0,0,7.4,15.56,35.42,35.42,0,0,0,13.38,10.34q8.26,3.81,20,3.81a91.17,91.17,0,0,0,13.27-.87,98,98,0,0,0,10.45-2.07,55.54,55.54,0,0,0,8.05-2.72c2.32-1,4.43-2,6.31-2.83l9.36,27.2q-7.18,4.36-20.24,7.83A118,118,0,0,1,363.85,157.34Z"/><path class="cls-1" d="M495.08,157.34q-15.9,0-27.42-4.46a51.08,51.08,0,0,1-19.05-12.41,49.47,49.47,0,0,1-11.09-18.93,77.57,77.57,0,0,1-3.6-24.27V3.48h33.95v91A51.12,51.12,0,0,0,469.94,110a28.55,28.55,0,0,0,5.66,10.44,20.1,20.1,0,0,0,8.7,5.77A34.63,34.63,0,0,0,495.51,128q12.4,0,20.13-7.62t7.73-25.89v-91h33.94V97.27a76.59,76.59,0,0,1-3.7,24.38,49.83,49.83,0,0,1-11.31,19A50.72,50.72,0,0,1,522.93,153Q511.19,157.34,495.08,157.34Z"/><path class="cls-1" d="M631.08,128.39a48.89,48.89,0,0,0,11.86-1.19,21.91,21.91,0,0,0,7.51-3.27,11,11,0,0,0,3.92-4.89,17.59,17.59,0,0,0,1.09-6.31q0-7.4-7-12.3T624.55,89.88q-7.39-2.62-14.79-6a54.52,54.52,0,0,1-13.28-8.49A40.31,40.31,0,0,1,586.91,63q-3.7-7.29-3.7-17.74a44,44,0,0,1,3.91-18.82,40.35,40.35,0,0,1,11.1-14.25,50.69,50.69,0,0,1,17.41-9A78,78,0,0,1,638.7,0Q653.92,0,665,3.26a93.79,93.79,0,0,1,18.28,7.19l-9.79,26.76a93.74,93.74,0,0,0-14-5.76,60.69,60.69,0,0,0-18.6-2.51q-12.2,0-17.52,3.38T618,42.65a12,12,0,0,0,2,7,19.17,19.17,0,0,0,5.55,5.11,49.8,49.8,0,0,0,8.27,4.14q4.68,1.85,10.34,3.8,11.75,4.36,20.46,8.6a54.83,54.83,0,0,1,14.47,9.9,35.9,35.9,0,0,1,8.59,13.28q2.83,7.62,2.83,18.49,0,21.12-14.8,32.75t-44.61,11.65a123.31,123.31,0,0,1-18.06-1.2,116.71,116.71,0,0,1-14.25-2.94,81.18,81.18,0,0,1-10.67-3.7,77.44,77.44,0,0,1-7.5-3.7l9.57-27a85.09,85.09,0,0,0,16.65,6.64Q616.72,128.39,631.08,128.39Z"/><path class="cls-1" d="M970.77,1.74q33.74,0,51.79,11.86t18.07,38.85q0,27.19-18.28,39.28T970.12,103.8H959.46v50.49h-34V5.66A192.11,192.11,0,0,1,949,2.61Q961.42,1.74,970.77,1.74ZM973,30.68c-2.47,0-4.9.08-7.29.22s-4.46.29-6.2.44V74.86h10.66q17.63,0,26.55-4.79t8.92-17.84a21.36,21.36,0,0,0-2.29-10.45,17.29,17.29,0,0,0-6.52-6.63,29.56,29.56,0,0,0-10.34-3.49A85.68,85.68,0,0,0,973,30.68Z"/><path class="cls-1" d="M1152,154.29q-2.52-7.86-5.41-16.14t-5.77-16.5H1082q-2.87,8.25-5.73,16.54t-5.34,16.1h-35.26q8.52-24.37,16.15-45t15-38.95Q1074,52,1081.13,35.58t14.74-32.1h32.18q7.42,15.67,14.65,32.1t14.54,34.71q7.32,18.28,15,38.95t16.18,45.05ZM1111.24,37.65q-1.12,3.29-3.32,8.94t-5,13.06q-2.81,7.41-6.25,16.33t-7,18.68h43.12q-3.45-9.81-6.7-18.74t-6.17-16.35q-2.91-7.41-5.12-13.06T1111.24,37.65Z"/><path class="cls-1" d="M1253,128.39a48.89,48.89,0,0,0,11.86-1.19,21.91,21.91,0,0,0,7.51-3.27,10.89,10.89,0,0,0,3.91-4.89,17.37,17.37,0,0,0,1.09-6.31q0-7.4-7-12.3t-23.94-10.55q-7.4-2.62-14.8-6a54.65,54.65,0,0,1-13.27-8.49,40.5,40.5,0,0,1-9.58-12.4q-3.69-7.29-3.7-17.74a44,44,0,0,1,3.92-18.82,40.12,40.12,0,0,1,11.1-14.25,50.69,50.69,0,0,1,17.41-9A77.91,77.91,0,0,1,1260.64,0q15.22,0,26.33,3.26a93.79,93.79,0,0,1,18.28,7.19l-9.79,26.76a93.74,93.74,0,0,0-14-5.76,60.71,60.71,0,0,0-18.61-2.51q-12.18,0-17.52,3.38T1240,42.65a12,12,0,0,0,2,7,19.17,19.17,0,0,0,5.55,5.11,49.42,49.42,0,0,0,8.27,4.14q4.68,1.85,10.34,3.8,11.75,4.36,20.45,8.6a54.67,54.67,0,0,1,14.47,9.9,35.92,35.92,0,0,1,8.6,13.28,53.45,53.45,0,0,1,2.83,18.49q0,21.12-14.8,32.75T1253,157.34a123.11,123.11,0,0,1-18.06-1.2,117.3,117.3,0,0,1-14.26-2.94,81,81,0,0,1-10.66-3.7,76.59,76.59,0,0,1-7.51-3.7l9.58-27a85,85,0,0,0,16.64,6.64Q1238.67,128.39,1253,128.39Z"/><path class="cls-1" d="M1379.67,128.39a48.89,48.89,0,0,0,11.86-1.19,21.91,21.91,0,0,0,7.51-3.27A10.89,10.89,0,0,0,1403,119a17.37,17.37,0,0,0,1.09-6.31q0-7.4-7-12.3t-23.94-10.55q-7.4-2.62-14.8-6a54.65,54.65,0,0,1-13.27-8.49,40.5,40.5,0,0,1-9.58-12.4q-3.71-7.29-3.7-17.74a44,44,0,0,1,3.92-18.82,40.12,40.12,0,0,1,11.1-14.25,50.69,50.69,0,0,1,17.41-9A77.91,77.91,0,0,1,1387.29,0q15.23,0,26.33,3.26a93.79,93.79,0,0,1,18.28,7.19l-9.8,26.76a93.6,93.6,0,0,0-14-5.76,60.76,60.76,0,0,0-18.61-2.51q-12.2,0-17.52,3.38t-5.33,10.33a11.93,11.93,0,0,0,2,7,19.17,19.17,0,0,0,5.55,5.11,49.42,49.42,0,0,0,8.27,4.14q4.68,1.85,10.34,3.8,11.74,4.36,20.45,8.6a54.67,54.67,0,0,1,14.47,9.9,35.92,35.92,0,0,1,8.6,13.28,53.45,53.45,0,0,1,2.83,18.49q0,21.12-14.8,32.75t-44.61,11.65a123.11,123.11,0,0,1-18.06-1.2,117.3,117.3,0,0,1-14.26-2.94,81,81,0,0,1-10.66-3.7,76.59,76.59,0,0,1-7.51-3.7l9.58-27a85,85,0,0,0,16.64,6.64Q1365.3,128.39,1379.67,128.39Z"/><polygon class="cls-2" points="759.89 31.45 783.29 44.96 807.8 30.8 784.4 17.3 759.89 31.45"/><polygon class="cls-3" points="807.8 90.39 783.29 76.24 758.78 90.39 783.29 104.54 807.8 90.39"/><polygon class="cls-4" points="784.58 75.49 809.09 89.64 833.61 75.49 809.09 61.34 784.58 75.49"/><polygon class="cls-5" points="859.4 60.6 834.89 46.45 810.38 60.6 834.89 74.75 859.4 60.6"/><polygon class="cls-6" points="744.59 67.3 756.21 60.6 744.59 53.89 744.59 67.3"/><polygon class="cls-7" points="873.59 83.68 861.98 90.39 873.59 97.09 873.59 83.68"/><polygon class="cls-8" points="836.18 45.7 860.69 59.85 873.59 52.4 873.59 40.28 859.58 32.19 836.18 45.7"/><polygon class="cls-9" points="809.09 30.06 832.49 16.55 809.09 3.04 785.7 16.55 809.09 30.06"/><polygon class="cls-10" points="782 105.28 757.49 91.13 744.59 98.58 744.59 114.75 755.1 120.82 782 105.28"/><polygon class="cls-11" points="809.09 120.93 782.19 136.46 809.09 151.99 836 136.46 809.09 120.93"/><polygon class="cls-6" points="757.49 59.85 782 45.7 758.61 32.19 744.59 40.28 744.59 52.4 757.49 59.85"/><polygon class="cls-12" points="861.8 121.56 834.89 106.03 810.38 120.18 837.29 135.72 861.8 121.56"/><polygon class="cls-7" points="860.69 91.13 836.18 105.28 863.09 120.82 873.59 114.75 873.59 98.58 860.69 91.13"/></g></g></svg>